<?xml version="1.0" encoding="utf-8"?>
<!-- Generator: Adobe Illustrator 22.0.1, SVG Export Plug-In . SVG Version: 6.00 Build 0)  -->
<svg version="1.1" id="图层_1" xmlns="http://www.w3.org/2000/svg" xmlns:xlink="http://www.w3.org/1999/xlink" x="0px" y="0px"
	 viewBox="0 0 1366 768" style="enable-background:new 0 0 1366 768;" xml:space="preserve">
<style type="text/css">
	.st0{fill:#050505;}
	.st1{fill-rule:evenodd;clip-rule:evenodd;fill:url(#SVGID_1_);}
	.st2{fill:#FFFFFF;}
	.st3{fill-rule:evenodd;clip-rule:evenodd;fill:url(#SVGID_2_);}
</style>
<rect class="st0" width="713" height="768"/>
<linearGradient id="SVGID_1_" gradientUnits="userSpaceOnUse" x1="361.263" y1="477.3374" x2="361.263" y2="232.5">
	<stop  offset="0" style="stop-color:#19D1B2"/>
	<stop  offset="1" style="stop-color:#0194BD"/>
</linearGradient>
<path class="st1" d="M395.9,286.3v54.4h41.9v-26.1L395.9,286.3z M335.7,305.2v98l-28.4-17v-64L335.7,305.2z M437.8,369.1h-41.9v54.5
	l41.9-28.4V369.1z M357.3,232.5V253l-83.3,48.2v107.5l83.3,48.2v20.5l-100.8-58.4V290.9L357.3,232.5L357.3,232.5z M367.6,232.6
	l98.5,66.8v111.1l-98.5,66.8h0V232.6z"/>
<path class="st2" d="M487,559.3v-2.9c0-0.7-0.1-1.4-0.4-2.1c-0.3-0.7-0.7-1.4-1.3-1.9c-0.6-0.6-1.5-1-2.5-1.4
	c-1-0.3-2.3-0.5-3.9-0.5h-6.6V565h7.3c1.3,0,2.5-0.2,3.4-0.5c0.9-0.3,1.7-0.7,2.3-1.3c0.6-0.5,1-1.1,1.3-1.8
	C486.9,560.8,487,560,487,559.3z M485.9,538.4v-1.6c0-0.6-0.1-1.2-0.3-1.8c-0.2-0.6-0.5-1.1-1.1-1.6c-0.5-0.5-1.2-0.8-2.1-1.1
	c-0.9-0.3-2.1-0.4-3.5-0.4l-6.7-0.1v12.4l6.3,0.1c2.1,0,3.8-0.5,5.2-1.4S485.9,540.5,485.9,538.4z M495,560.5c0,2.1-0.5,3.8-1.5,5.1
	c-1,1.4-2.2,2.5-3.6,3.3c-1.4,0.8-3,1.4-4.6,1.7c-1.6,0.3-3,0.5-4.3,0.5l-16.6,0.1v-45.7h15.3c2.1,0,4,0.2,5.7,0.7
	c1.7,0.5,3.2,1.2,4.5,2c1.3,0.9,2.3,2,2.9,3.4c0.7,1.4,1,2.9,1,4.7v2c0,0.6-0.1,1.3-0.3,2c-0.2,0.8-0.5,1.6-0.9,2.3
	c-0.4,0.8-1,1.5-1.6,2.3c-0.7,0.7-1.5,1.4-2.4,1.9c1.2,0.4,2.2,1,3,1.7c0.8,0.7,1.4,1.5,1.9,2.3c0.5,0.8,0.9,1.6,1.1,2.4
	c0.2,0.8,0.3,1.4,0.3,2V560.5z M450.7,559.3v-21.1c0-0.7-0.1-1.4-0.4-2.2c-0.3-0.8-0.7-1.5-1.3-2.1c-0.6-0.6-1.4-1.2-2.3-1.5
	c-1-0.4-2.1-0.6-3.4-0.6H436V565h7.3c1.3,0,2.5-0.2,3.4-0.5c1-0.3,1.7-0.7,2.3-1.3c0.6-0.5,1-1.1,1.3-1.8
	C450.6,560.8,450.7,560.1,450.7,559.3z M458.7,559.2c0,2.1-0.4,3.8-1.1,5.4s-1.7,2.8-3,3.8c-1.3,1-2.7,1.7-4.5,2.2s-3.6,0.7-5.5,0.7
	l-15.4,0.1v-45.7h14.7c1.9,0,3.8,0.2,5.6,0.7c1.8,0.5,3.4,1.2,4.7,2.2c1.4,1,2.5,2.2,3.3,3.8c0.8,1.5,1.2,3.3,1.2,5.4V559.2z
	 M414.5,561.4V549c0-1.6-0.6-2.8-1.9-3.6c-1.3-0.8-2.7-1.2-4.3-1.2c-1.6,0-3.1,0.4-4.3,1.2c-1.3,0.8-1.9,2-1.9,3.6v12.4
	c0,1.7,0.6,2.8,1.9,3.6c1.3,0.7,2.7,1.1,4.3,1.1c0.8,0,1.5-0.1,2.3-0.3c0.7-0.2,1.4-0.4,2-0.8c0.6-0.4,1.1-0.8,1.4-1.4
	S414.5,562.2,414.5,561.4z M422.4,560.4c0,2-0.4,3.6-1.1,5c-0.7,1.4-1.8,2.5-3,3.3c-1.3,0.9-2.8,1.5-4.5,1.9
	c-1.7,0.4-3.6,0.6-5.5,0.6c-2,0-3.8-0.2-5.6-0.6c-1.7-0.4-3.2-1-4.5-1.9c-1.3-0.9-2.3-2-3-3.3c-0.7-1.4-1.1-3-1.1-5v-12.8
	c0-1.9,0.4-3.6,1.1-4.9c0.7-1.4,1.8-2.5,3-3.3c1.3-0.9,2.8-1.5,4.5-1.9c1.7-0.4,3.6-0.6,5.6-0.6c1.9,0,3.8,0.2,5.5,0.6
	c1.7,0.4,3.2,1,4.5,1.8s2.3,1.9,3,3.3c0.7,1.4,1.1,3,1.1,4.9V560.4z M380.5,564.5v-7.8l-6.2,0.1c-1.8,0-3.1,0.3-4,1
	s-1.2,1.6-1.2,2.9v2c0,1.3,0.4,2.1,1.3,2.6c0.9,0.5,1.9,0.8,3.2,0.8c1.2,0,2.5-0.1,3.8-0.5C378.7,565.3,379.7,564.9,380.5,564.5z
	 M388.4,570.6h-4.1l-2-1.1c-1.7,0.8-3.3,1.2-4.9,1.5c-1.5,0.2-2.8,0.3-3.9,0.3c-1.5,0-2.9-0.1-4.3-0.4c-1.4-0.3-2.6-0.7-3.6-1.4
	c-1-0.7-1.9-1.7-2.5-2.9c-0.6-1.2-0.9-2.9-0.9-4.9v-2.5c0-1.6,0.4-3.1,1.1-4.3c0.7-1.2,1.6-2.2,2.7-3c1.1-0.8,2.3-1.4,3.7-1.7
	c1.4-0.4,2.7-0.6,4.1-0.6l7,0.1v-2.3c0-0.9-0.2-1.7-0.6-2.2c-0.4-0.6-0.9-1-1.4-1.2c-0.6-0.3-1.2-0.4-2-0.5s-1.4-0.1-2.1-0.1
	c-1.7,0-3.2,0.2-4.7,0.5c-1.4,0.3-2.5,0.7-3.3,1L365,539c0.7-0.3,1.5-0.5,2.4-0.8s1.8-0.5,2.8-0.6c1-0.2,1.9-0.3,2.9-0.4
	c1-0.1,1.9-0.2,2.8-0.2c1.7,0,3.3,0.2,4.8,0.5c1.5,0.4,2.8,0.9,4,1.7c1.1,0.8,2,1.8,2.7,2.9c0.7,1.2,1,2.6,1,4.2V570.6z
	 M348.7,560.1l-0.1-12.5c0-1.6-0.5-2.7-1.4-3.4c-0.9-0.7-2.1-1-3.4-1.1c-1.3-0.1-2.7,0.1-4.1,0.6c-1.4,0.4-2.6,1-3.5,1.6v19.1
	c1.6,0.4,3.2,0.5,4.7,0.6c1.5,0,2.8-0.1,4-0.4c1.2-0.3,2.1-0.9,2.8-1.6C348.4,562.3,348.7,561.3,348.7,560.1z M356.7,547.6
	l-0.1,14.3c0,1.9-0.3,3.5-1,4.8s-1.6,2.4-2.8,3.2c-1.2,0.8-2.6,1.4-4.3,1.8s-3.4,0.6-5.3,0.6c-1,0-2,0-3.1,0c-1,0-2.1-0.1-3.1-0.2
	s-2.2-0.3-3.5-0.4c-1.2-0.2-2.6-0.4-4-0.7v-48.5h5.5l2,7.5v9.7c1.4-0.7,2.8-1.1,4.2-1.3c1.4-0.2,2.5-0.3,3.3-0.3
	c1.1,0,2.4,0.1,3.8,0.3c1.4,0.2,2.7,0.6,4,1.3c1.2,0.7,2.3,1.7,3.1,3S356.7,545.4,356.7,547.6z M321.5,570.6h-4.1l-1.9-1.1
	c-1.7,0.8-3.3,1.2-5,1.4c-1.6,0.2-3,0.3-4,0.3c-1.5,0-3-0.2-4.3-0.5s-2.5-0.8-3.5-1.6c-1-0.8-1.8-1.8-2.4-3.1
	c-0.6-1.3-0.9-2.9-0.9-4.9v-23.2l7.5-0.1v23c0,1.3,0.3,2.3,1,2.9c0.7,0.6,1.6,1,2.7,1.2c1.1,0.2,2.3,0.1,3.6-0.2
	c1.3-0.3,2.6-0.7,3.9-1.2v-25.7h7.4V570.6z M287.5,571.3H280l0.1-24c0-1.4-0.5-2.4-1.5-2.9c-1-0.5-2.2-0.7-3.5-0.5
	c-1.3,0.1-2.7,0.5-4,1s-2.4,1.1-3.1,1.6v24.8h-7.5l-0.1-48.8h5.7l2,7.7l-0.1,10c0.5-0.3,1.1-0.6,1.9-0.9c0.8-0.3,1.5-0.5,2.3-0.7
	c0.8-0.2,1.6-0.4,2.4-0.5c0.8-0.1,1.5-0.2,2.1-0.2c1.5,0,2.9,0.1,4.3,0.3c1.3,0.2,2.5,0.7,3.5,1.3c1,0.6,1.8,1.6,2.4,2.8
	s0.9,2.8,0.9,4.8V571.3z M255.8,568.8c-1.2,0.5-2.5,0.9-3.7,1.2s-2.4,0.6-3.6,0.8c-1.1,0.2-2.2,0.3-3.1,0.4s-1.8,0.1-2.4,0.1
	c-2,0-3.9-0.2-5.7-0.5s-3.5-0.9-4.9-1.7s-2.6-1.9-3.5-3.2c-0.9-1.4-1.3-3.1-1.3-5.2v-23.7c0-2,0.4-3.8,1.3-5.4s2-2.8,3.4-3.9
	c1.4-1,3.1-1.8,4.9-2.4c1.9-0.5,3.8-0.8,5.8-0.8c2.1,0,4.1,0.2,6.1,0.6c1.9,0.4,3.9,1.1,6.1,2l-2.7,5.9c-1.2-0.6-2.6-1.2-4.2-1.6
	c-1.6-0.4-3.1-0.7-4.4-0.7c-2.4,0-4.4,0.5-6.1,1.5c-1.6,1-2.5,2.6-2.5,4.8v23.1c0,1.6,0.6,2.8,1.9,3.7c1.3,0.9,3.3,1.4,6.2,1.4
	c1.1,0,2.5-0.2,4.4-0.5s3.9-1,6.3-2L255.8,568.8z"/>
<linearGradient id="SVGID_2_" gradientUnits="userSpaceOnUse" x1="1040.2629" y1="477.3374" x2="1040.2629" y2="232.5">
	<stop  offset="0" style="stop-color:#19D1B2"/>
	<stop  offset="1" style="stop-color:#0194BD"/>
</linearGradient>
<path class="st3" d="M1074.9,286.3v54.4h41.9v-26.1L1074.9,286.3z M1014.7,305.2v98l-28.4-17v-64L1014.7,305.2z M1116.8,369.1h-41.9
	v54.5l41.9-28.4V369.1z M1036.3,232.5V253l-83.3,48.2v107.5l83.3,48.2v20.5l-100.8-58.4V290.9L1036.3,232.5L1036.3,232.5z
	 M1046.6,232.6l98.5,66.8v111.1l-98.5,66.8h0V232.6z"/>
<path class="st0" d="M1166,559.3v-2.9c0-0.7-0.1-1.4-0.4-2.1c-0.3-0.7-0.7-1.4-1.3-1.9s-1.5-1-2.5-1.4c-1-0.3-2.3-0.5-3.9-0.5h-6.6
	V565h7.3c1.3,0,2.5-0.2,3.4-0.5c0.9-0.3,1.7-0.7,2.3-1.3s1-1.1,1.3-1.8S1166,560,1166,559.3z M1164.9,538.4v-1.6
	c0-0.6-0.1-1.2-0.3-1.8s-0.5-1.1-1.1-1.6c-0.5-0.5-1.2-0.8-2.1-1.1c-0.9-0.3-2.1-0.4-3.5-0.4l-6.7-0.1v12.4l6.3,0.1
	c2.1,0,3.8-0.5,5.2-1.4C1164.2,542,1164.9,540.5,1164.9,538.4z M1174,560.5c0,2.1-0.5,3.8-1.5,5.1c-1,1.4-2.2,2.5-3.6,3.3
	c-1.4,0.8-3,1.4-4.6,1.7c-1.6,0.3-3,0.5-4.3,0.5l-16.6,0.1v-45.7h15.3c2.1,0,4,0.2,5.7,0.7c1.7,0.5,3.2,1.2,4.5,2
	c1.3,0.9,2.3,2,2.9,3.4c0.7,1.4,1,2.9,1,4.7v2c0,0.6-0.1,1.3-0.3,2c-0.2,0.8-0.5,1.6-0.9,2.3c-0.4,0.8-1,1.5-1.6,2.3
	c-0.7,0.7-1.5,1.4-2.4,1.9c1.2,0.4,2.2,1,3,1.7c0.8,0.7,1.4,1.5,1.9,2.3c0.5,0.8,0.9,1.6,1.1,2.4c0.2,0.8,0.3,1.4,0.3,2V560.5z
	 M1129.7,559.3v-21.1c0-0.7-0.1-1.4-0.4-2.2s-0.7-1.5-1.3-2.1c-0.6-0.6-1.4-1.2-2.3-1.5c-1-0.4-2.1-0.6-3.4-0.6h-7.3V565h7.3
	c1.3,0,2.5-0.2,3.4-0.5c1-0.3,1.7-0.7,2.3-1.3c0.6-0.5,1-1.1,1.3-1.8S1129.7,560.1,1129.7,559.3z M1137.7,559.2
	c0,2.1-0.4,3.8-1.1,5.4c-0.7,1.5-1.7,2.8-3,3.8c-1.3,1-2.7,1.7-4.5,2.2s-3.6,0.7-5.5,0.7l-15.4,0.1v-45.7h14.7
	c1.9,0,3.8,0.2,5.6,0.7c1.8,0.5,3.4,1.2,4.7,2.2c1.4,1,2.5,2.2,3.3,3.8c0.8,1.5,1.2,3.3,1.2,5.4V559.2z M1093.5,561.4V549
	c0-1.6-0.6-2.8-1.9-3.6c-1.3-0.8-2.7-1.2-4.3-1.2c-1.6,0-3.1,0.4-4.3,1.2c-1.3,0.8-1.9,2-1.9,3.6v12.4c0,1.7,0.6,2.8,1.9,3.6
	c1.3,0.7,2.7,1.1,4.3,1.1c0.8,0,1.5-0.1,2.3-0.3c0.7-0.2,1.4-0.4,2-0.8c0.6-0.4,1.1-0.8,1.4-1.4
	C1093.3,562.9,1093.5,562.2,1093.5,561.4z M1101.4,560.4c0,2-0.4,3.6-1.1,5c-0.7,1.4-1.8,2.5-3,3.3c-1.3,0.9-2.8,1.5-4.5,1.9
	c-1.7,0.4-3.6,0.6-5.5,0.6c-2,0-3.8-0.2-5.6-0.6c-1.7-0.4-3.2-1-4.5-1.9c-1.3-0.9-2.3-2-3-3.3c-0.7-1.4-1.1-3-1.1-5v-12.8
	c0-1.9,0.4-3.6,1.1-4.9c0.7-1.4,1.8-2.5,3-3.3c1.3-0.9,2.8-1.5,4.5-1.9c1.7-0.4,3.6-0.6,5.6-0.6c1.9,0,3.8,0.2,5.5,0.6
	c1.7,0.4,3.2,1,4.5,1.8c1.3,0.8,2.3,1.9,3,3.3c0.7,1.4,1.1,3,1.1,4.9V560.4z M1059.5,564.5v-7.8l-6.2,0.1c-1.8,0-3.1,0.3-4,1
	c-0.8,0.7-1.2,1.6-1.2,2.9v2c0,1.3,0.4,2.1,1.3,2.6c0.9,0.5,1.9,0.8,3.2,0.8c1.2,0,2.5-0.1,3.8-0.5
	C1057.7,565.3,1058.7,564.9,1059.5,564.5z M1067.4,570.6h-4.1l-2-1.1c-1.7,0.8-3.3,1.2-4.9,1.5s-2.8,0.3-3.9,0.3
	c-1.5,0-2.9-0.1-4.3-0.4c-1.4-0.3-2.6-0.7-3.6-1.4s-1.9-1.7-2.5-2.9c-0.6-1.2-0.9-2.9-0.9-4.9v-2.5c0-1.6,0.3-3.1,1.1-4.3
	s1.6-2.2,2.7-3c1.1-0.8,2.3-1.4,3.7-1.7c1.4-0.4,2.7-0.6,4.1-0.6l7,0.1v-2.3c0-0.9-0.2-1.7-0.6-2.2c-0.4-0.6-0.9-1-1.4-1.2
	c-0.6-0.3-1.2-0.4-2-0.5c-0.7-0.1-1.4-0.1-2.1-0.1c-1.7,0-3.2,0.2-4.7,0.5c-1.4,0.3-2.5,0.7-3.3,1l-1.7-5.7c0.7-0.3,1.5-0.5,2.4-0.8
	s1.8-0.5,2.8-0.6c1-0.2,1.9-0.3,2.9-0.4c1-0.1,1.9-0.2,2.8-0.2c1.7,0,3.3,0.2,4.8,0.5c1.5,0.4,2.8,0.9,4,1.7c1.1,0.8,2,1.8,2.7,2.9
	c0.7,1.2,1,2.6,1,4.2V570.6z M1027.7,560.1l-0.1-12.5c0-1.6-0.5-2.7-1.4-3.4c-0.9-0.7-2.1-1-3.4-1.1c-1.3-0.1-2.7,0.1-4.1,0.6
	c-1.4,0.4-2.6,1-3.5,1.6v19.1c1.6,0.4,3.2,0.5,4.7,0.6c1.5,0,2.8-0.1,4-0.4c1.2-0.3,2.1-0.9,2.8-1.6
	C1027.4,562.3,1027.7,561.3,1027.7,560.1z M1035.7,547.6l-0.1,14.3c0,1.9-0.3,3.5-1,4.8c-0.7,1.3-1.6,2.4-2.8,3.2
	c-1.2,0.8-2.6,1.4-4.3,1.8s-3.4,0.6-5.3,0.6c-1,0-2,0-3.1,0c-1,0-2.1-0.1-3.1-0.2c-1.1-0.1-2.2-0.3-3.5-0.4c-1.2-0.2-2.6-0.4-4-0.7
	v-48.5h5.5l2,7.5v9.7c1.4-0.7,2.8-1.1,4.2-1.3c1.4-0.2,2.5-0.3,3.3-0.3c1.1,0,2.4,0.1,3.8,0.3c1.4,0.2,2.7,0.6,4,1.3
	c1.2,0.7,2.3,1.7,3.1,3S1035.7,545.4,1035.7,547.6z M1000.5,570.6h-4.1l-1.9-1.1c-1.7,0.8-3.3,1.2-5,1.4c-1.6,0.2-3,0.3-4,0.3
	c-1.5,0-3-0.2-4.3-0.5s-2.5-0.8-3.5-1.6c-1-0.8-1.8-1.8-2.4-3.1s-0.9-2.9-0.9-4.9v-23.2l7.5-0.1v23c0,1.3,0.3,2.3,1,2.9
	c0.7,0.6,1.6,1,2.7,1.2c1.1,0.2,2.3,0.1,3.6-0.2c1.3-0.3,2.6-0.7,3.9-1.2v-25.7h7.4V570.6z M966.5,571.3H959l0.1-24
	c0-1.4-0.5-2.4-1.5-2.9c-1-0.5-2.2-0.7-3.5-0.5c-1.3,0.1-2.7,0.5-4,1s-2.4,1.1-3.1,1.6v24.8h-7.5l-0.1-48.8h5.7l2,7.7l-0.1,10
	c0.5-0.3,1.1-0.6,1.9-0.9c0.8-0.3,1.5-0.5,2.3-0.7s1.6-0.4,2.4-0.5c0.8-0.1,1.5-0.2,2.1-0.2c1.5,0,2.9,0.1,4.3,0.3
	c1.3,0.2,2.5,0.7,3.5,1.3c1,0.6,1.8,1.6,2.4,2.8s0.9,2.8,0.9,4.8V571.3z M934.8,568.8c-1.2,0.5-2.5,0.9-3.7,1.2
	c-1.3,0.3-2.4,0.6-3.6,0.8c-1.1,0.2-2.2,0.3-3.1,0.4s-1.8,0.1-2.4,0.1c-2,0-3.9-0.2-5.7-0.5s-3.5-0.9-4.9-1.7
	c-1.5-0.8-2.6-1.9-3.5-3.2c-0.9-1.4-1.3-3.1-1.3-5.2v-23.7c0-2,0.4-3.8,1.3-5.4s2-2.8,3.4-3.9c1.4-1,3.1-1.8,4.9-2.4
	c1.9-0.5,3.8-0.8,5.8-0.8c2.1,0,4.1,0.2,6.1,0.6c1.9,0.4,3.9,1.1,6.1,2l-2.7,5.9c-1.2-0.6-2.6-1.2-4.2-1.6c-1.6-0.4-3.1-0.7-4.4-0.7
	c-2.4,0-4.4,0.5-6.1,1.5c-1.6,1-2.5,2.6-2.5,4.8v23.1c0,1.6,0.6,2.8,1.9,3.7c1.3,0.9,3.3,1.4,6.2,1.4c1.1,0,2.5-0.2,4.4-0.5
	s3.9-1,6.3-2L934.8,568.8z"/>
</svg>
